<?xml version="1.0" encoding="UTF-8" standalone="no"?>
<!-- Created with Inkscape (http://www.inkscape.org/) -->

<svg
   width="210mm"
   height="297mm"
   viewBox="0 0 210 297"
   version="1.1"
   id="svg3155"
   inkscape:version="1.1 (c68e22c387, 2021-05-23)"
   sodipodi:docname="0.svg"
   xmlns:inkscape="http://www.inkscape.org/namespaces/inkscape"
   xmlns:sodipodi="http://sodipodi.sourceforge.net/DTD/sodipodi-0.dtd"
   xmlns="http://www.w3.org/2000/svg"
   xmlns:svg="http://www.w3.org/2000/svg">
  <sodipodi:namedview
     id="namedview3157"
     pagecolor="#505050"
     bordercolor="#ffffff"
     borderopacity="1"
     inkscape:pageshadow="0"
     inkscape:pageopacity="0"
     inkscape:pagecheckerboard="1"
     inkscape:document-units="mm"
     showgrid="false"
     inkscape:zoom="0.61647026"
     inkscape:cx="397.42388"
     inkscape:cy="562.07091"
     inkscape:window-width="1600"
     inkscape:window-height="837"
     inkscape:window-x="-8"
     inkscape:window-y="-8"
     inkscape:window-maximized="1"
     inkscape:current-layer="layer1" />
  <defs
     id="defs3152" />
  <g
     inkscape:label="Ebene 1"
     inkscape:groupmode="layer"
     id="layer1">
    <path
       style="fill:none;stroke:#000000;stroke-width:0.264583px;stroke-linecap:butt;stroke-linejoin:miter;stroke-opacity:1"
       d="m 103.30633,130.00466 c -1.30645,0.54067 -2.94185,1.05432 -3.865234,2.25472 -1.310854,1.70411 -1.690047,4.63442 -1.207881,6.68362 0.161575,0.68671 0.701574,1.45952 1.127358,1.93261 0.422822,0.46981 1.532897,1.15445 2.174187,1.20789 1.15094,0.0959 2.29881,-0.0271 3.30155,-0.64421 1.39221,-0.85674 2.42574,-2.1661 2.97945,-3.70417 0.33133,-0.92038 0.10733,-1.84326 -0.16105,-2.73787 -0.16577,-0.55255 -0.23584,-1.13506 -0.40263,-1.69104 -0.0883,-0.29416 -0.27296,-0.54591 -0.40263,-0.80526 -0.12929,-0.25857 -0.17867,-0.55424 -0.3221,-0.80525 -0.27907,-0.48838 -1.18317,-1.40737 -1.69104,-1.61051 -0.31737,-0.12695 -0.71209,-0.0805 -1.04683,-0.0805"
       id="path2144" />
  </g>
</svg>
