<?xml version="1.0" encoding="UTF-8" standalone="no"?>
<!-- Created with Inkscape (http://www.inkscape.org/) -->

<svg
   width="210mm"
   height="297mm"
   viewBox="0 0 210 297"
   version="1.1"
   id="svg3155"
   inkscape:version="1.1 (c68e22c387, 2021-05-23)"
   sodipodi:docname="1.svg"
   xmlns:inkscape="http://www.inkscape.org/namespaces/inkscape"
   xmlns:sodipodi="http://sodipodi.sourceforge.net/DTD/sodipodi-0.dtd"
   xmlns="http://www.w3.org/2000/svg"
   xmlns:svg="http://www.w3.org/2000/svg">
  <sodipodi:namedview
     id="namedview3157"
     pagecolor="#505050"
     bordercolor="#ffffff"
     borderopacity="1"
     inkscape:pageshadow="0"
     inkscape:pageopacity="0"
     inkscape:pagecheckerboard="1"
     inkscape:document-units="mm"
     showgrid="false"
     inkscape:zoom="0.61647026"
     inkscape:cx="397.42388"
     inkscape:cy="562.07091"
     inkscape:window-width="1600"
     inkscape:window-height="837"
     inkscape:window-x="-8"
     inkscape:window-y="-8"
     inkscape:window-maximized="1"
     inkscape:current-layer="layer1" />
  <defs
     id="defs3152" />
  <g
     inkscape:label="Ebene 1"
     inkscape:groupmode="layer"
     id="layer1">
    <path
       style="fill:none;stroke:#000000;stroke-width:0.264583px;stroke-linecap:butt;stroke-linejoin:miter;stroke-opacity:1"
       d="m 92.131334,127.32482 c 1.682345,-2.19118 3.669157,-4.11595 5.475737,-6.20047 1.721959,-1.98688 -0.609134,0.69724 0.885783,-1.04683 0.03906,-0.0456 0.0205,-0.16105 0.08053,-0.16105 0.08943,0 0.214397,0.56165 0.241575,0.72473 0.182835,1.097 0.08053,2.27284 0.08053,3.38207 0,1.62015 0.171254,3.2141 0.241578,4.83153 0.09183,2.11215 0,4.24686 0,6.36153 0,0.40262 -0.02678,0.80614 0,1.20788 0.04345,0.6518 0.189388,1.41663 0.08053,1.85209 -0.09253,0.37012 -0.08053,0.0183 -0.08053,0.24157"
       id="path1441" />
  </g>
</svg>
