<?xml version="1.0" encoding="UTF-8" standalone="no"?>
<!-- Created with Inkscape (http://www.inkscape.org/) -->

<svg
   width="210mm"
   height="297mm"
   viewBox="0 0 210 297"
   version="1.1"
   id="svg3155"
   inkscape:version="1.1 (c68e22c387, 2021-05-23)"
   sodipodi:docname="2.svg"
   xmlns:inkscape="http://www.inkscape.org/namespaces/inkscape"
   xmlns:sodipodi="http://sodipodi.sourceforge.net/DTD/sodipodi-0.dtd"
   xmlns="http://www.w3.org/2000/svg"
   xmlns:svg="http://www.w3.org/2000/svg">
  <sodipodi:namedview
     id="namedview3157"
     pagecolor="#505050"
     bordercolor="#ffffff"
     borderopacity="1"
     inkscape:pageshadow="0"
     inkscape:pageopacity="0"
     inkscape:pagecheckerboard="1"
     inkscape:document-units="mm"
     showgrid="false"
     inkscape:zoom="0.61647026"
     inkscape:cx="397.42388"
     inkscape:cy="562.07091"
     inkscape:window-width="1600"
     inkscape:window-height="837"
     inkscape:window-x="-8"
     inkscape:window-y="-8"
     inkscape:window-maximized="1"
     inkscape:current-layer="layer1" />
  <defs
     id="defs3152" />
  <g
     inkscape:label="Ebene 1"
     inkscape:groupmode="layer"
     id="layer1">
    <path
       style="fill:none;stroke:#000000;stroke-width:0.264583px;stroke-linecap:butt;stroke-linejoin:miter;stroke-opacity:1"
       d="m 68.210743,98.404294 c 2.8019,-2.909668 1.267404,-1.912578 5.314688,-3.4626 0.574995,-0.220213 1.254836,-0.278905 1.852088,-0.241578 0.436102,0.02726 0.871739,0.109996 1.28841,0.241578 0.217189,0.06858 0.340873,0.3053 0.483153,0.483153 1.272471,1.590588 0.855107,3.972168 -0.241578,5.556263 -0.837893,1.21029 -1.901457,2.16518 -2.979446,3.1405 -1.076251,0.97375 -0.05907,0.27881 -1.691037,1.52999 -0.413607,0.31709 -0.8748,0.56868 -1.28841,0.88578 -2.147382,1.64632 -0.07748,0.3348 -2.335241,1.77156 -0.54787,0.34865 -1.165307,0.65844 -1.771563,0.88578 -0.103624,0.0389 -0.21358,0.0588 -0.322101,0.0805 -0.02633,0.005 -0.08053,-0.0268 -0.08053,0 0,0.0805 0.163454,-0.0195 0.241578,0 0.05823,0.0145 0.101081,0.078 0.161049,0.0805 0.858195,0.0358 1.717879,0 2.576819,0 1.348518,0 2.680431,0.19672 4.026279,0.24158 1.792814,0.0598 3.531229,-0.24158 5.314688,-0.24158"
       id="path1513" />
  </g>
</svg>
