<?xml version="1.0" encoding="UTF-8" standalone="no"?>
<!-- Created with Inkscape (http://www.inkscape.org/) -->

<svg
   width="210mm"
   height="297mm"
   viewBox="0 0 210 297"
   version="1.1"
   id="svg3155"
   inkscape:version="1.1 (c68e22c387, 2021-05-23)"
   sodipodi:docname="26.svg"
   xmlns:inkscape="http://www.inkscape.org/namespaces/inkscape"
   xmlns:sodipodi="http://sodipodi.sourceforge.net/DTD/sodipodi-0.dtd"
   xmlns="http://www.w3.org/2000/svg"
   xmlns:svg="http://www.w3.org/2000/svg">
  <sodipodi:namedview
     id="namedview3157"
     pagecolor="#505050"
     bordercolor="#ffffff"
     borderopacity="1"
     inkscape:pageshadow="0"
     inkscape:pageopacity="0"
     inkscape:pagecheckerboard="1"
     inkscape:document-units="mm"
     showgrid="false"
     inkscape:zoom="0.61647026"
     inkscape:cx="397.42388"
     inkscape:cy="562.07091"
     inkscape:window-width="1600"
     inkscape:window-height="837"
     inkscape:window-x="-8"
     inkscape:window-y="-8"
     inkscape:window-maximized="1"
     inkscape:current-layer="layer1" />
  <defs
     id="defs3152" />
  <g
     inkscape:label="Ebene 1"
     inkscape:groupmode="layer"
     id="layer1">
    <path
       id="path2343"
       style="fill:none;stroke:#000000;stroke-width:0.264583px;stroke-linecap:butt;stroke-linejoin:miter;stroke-opacity:1"
       d="m 93.689755,129.84166 c 0.17375,1.13445 0.24682,0.98387 0,0 z m 2.69054,-0.824 c -0.90039,0.0252 -1.93669,1.91337 -0.40757,1.31639 0.46711,-0.68656 2.13679,-1.55478 1.57267,0.0316 0.19841,1.22663 -1.94532,3.39141 -2.33241,1.38984 0.26298,-1.83224 2.17308,-2.79174 3.465,-3.88769 2.165115,-1.52867 4.565685,-2.67836 6.971965,-3.77015 m -11.960195,5.74405 c -0.0671,-0.55026 -0.13421,-1.10051 -0.20131,-1.65077 m -1.77156,1.69103 c 1.2483,0.49828 1.00038,1.67804 -0.16109,1.48973 m -0.56365,-2.65735 c 0.1998,0.88225 0.59701,1.73539 0.56368,2.65735 m -1.93261,-1.81183 c 0.1772,0.79923 0.32853,1.62767 0.76499,2.33524 m -2.97945,-0.44289 c 1.3623,0.47994 1.38978,-2.14397 -0.0178,-1.01024 -1.22623,0.78945 0.85047,1.56159 1.46731,1.13106 m -5.07312,0.64418 c 0.72896,-0.27512 1.5149,0.0803 2.25472,-0.1208 m -0.40263,-1.89234 c 0.10304,1.23455 -0.008,2.4964 0.32211,3.70417 m -2.4963,-2.97944 c 0.27206,0.87205 0.20675,1.83544 0.64421,2.65734 m -6.361522,-9.42149 c 0.98723,3.35915 1.012517,6.94341 0.426239,10.37724 1.648663,-0.71463 2.517843,-2.41293 3.691793,-3.68029 1.2892,-1.76344 2.63713,-3.53923 4.50819,-4.72761 1.32787,-0.93736 2.84914,-1.71513 4.49945,-1.80829 -0.95358,1.66675 -3.00076,2.15678 -4.45822,3.26735 -5.7746,3.38622 -11.576514,6.76639 -17.014047,10.67717 -0.763984,0.36445 -1.176336,1.63143 0.09803,0.93843 3.377775,-1.36774 6.635978,-3.03471 10.126867,-4.11405 4.47291,-1.61365 9.0601,-2.9177 13.74942,-3.72502 3.25121,-0.62289 6.46436,-1.42945 9.683445,-2.1875 0.73946,-0.11678 1.4909,-0.1385 2.22857,-0.2664" />
  </g>
</svg>
