<?xml version="1.0" encoding="UTF-8" standalone="no"?>
<!-- Created with Inkscape (http://www.inkscape.org/) -->

<svg
   width="210mm"
   height="297mm"
   viewBox="0 0 210 297"
   version="1.1"
   id="svg3155"
   inkscape:version="1.1 (c68e22c387, 2021-05-23)"
   sodipodi:docname="4.svg"
   xmlns:inkscape="http://www.inkscape.org/namespaces/inkscape"
   xmlns:sodipodi="http://sodipodi.sourceforge.net/DTD/sodipodi-0.dtd"
   xmlns="http://www.w3.org/2000/svg"
   xmlns:svg="http://www.w3.org/2000/svg">
  <sodipodi:namedview
     id="namedview3157"
     pagecolor="#505050"
     bordercolor="#ffffff"
     borderopacity="1"
     inkscape:pageshadow="0"
     inkscape:pageopacity="0"
     inkscape:pagecheckerboard="1"
     inkscape:document-units="mm"
     showgrid="false"
     inkscape:zoom="0.61647026"
     inkscape:cx="397.42388"
     inkscape:cy="562.07091"
     inkscape:window-width="1600"
     inkscape:window-height="837"
     inkscape:window-x="-8"
     inkscape:window-y="-8"
     inkscape:window-maximized="1"
     inkscape:current-layer="layer1" />
  <defs
     id="defs3152" />
  <g
     inkscape:label="Ebene 1"
     inkscape:groupmode="layer"
     id="layer1">
    <path
       style="fill:none;stroke:#000000;stroke-width:0.264583px;stroke-linecap:butt;stroke-linejoin:miter;stroke-opacity:1"
       d="m 154.61071,107.19182 c -0.45631,0.77842 -0.91429,1.55585 -1.36893,2.33524 -1.50535,2.5806 -1.04853,1.82095 -2.09367,3.30155 -0.41293,0.58499 -0.70732,1.19048 -1.20788,1.69104 -0.27863,0.27863 -0.55733,0.50576 -0.88578,0.72473 -0.0401,0.0268 -0.40263,0.18504 -0.40263,0.24158 0,0.0262 0.31823,-0.10685 0.72473,-0.16106 0.26739,-0.0357 0.53684,-0.0537 0.80525,-0.0805 0.69789,-0.0805 1.39783,-0.14493 2.09367,-0.24157 0.27113,-0.0377 0.53302,-0.1324 0.80525,-0.16105 0.24025,-0.0253 0.48353,0.0134 0.72473,0 0.70144,-0.039 1.39515,-0.16674 2.09367,-0.24158 0.9108,-0.0976 1.82736,-0.14573 2.73787,-0.24158 0.9817,-0.10333 1.93042,-0.39669 2.89892,-0.56367 0.29217,-0.0504 0.59228,-0.0386 0.88578,-0.0805 0.74193,-0.10599 -0.24551,-0.0805 0.48316,-0.0805 0.12993,0 -0.0989,-0.10124 -0.40263,0 -0.534,0.17799 -1.32736,0.3782 -1.85209,0.48315 -1.08746,0.21749 -2.31037,-0.0263 -3.38208,0.24158 -0.11095,0.0277 -0.48489,-0.0788 -0.56368,0 -0.0654,0.0654 0.34135,0.86297 0.40263,1.04683 0.22173,0.66518 -0.0551,-0.25029 0.0805,0.56368 0.11738,0.70428 0.32303,1.37726 0.40263,2.09366 0.0363,0.32718 0.0826,1.04891 0.3221,1.28841 0.038,0.038 0.013,-0.10897 0,-0.16105 -0.0752,-0.30102 -0.25671,-0.5915 -0.3221,-0.88578 -0.24169,-1.08761 -0.35307,-2.23403 -0.64421,-3.30155 -0.28331,-1.03883 -0.0733,-2.08793 -0.16105,-3.1405 -0.0759,-0.91067 -0.3221,-1.823 -0.3221,-2.73787"
       id="path1727" />
  </g>
</svg>
