<?xml version="1.0" encoding="UTF-8" standalone="no"?>
<!-- Created with Inkscape (http://www.inkscape.org/) -->

<svg
   width="210mm"
   height="297mm"
   viewBox="0 0 210 297"
   version="1.1"
   id="svg3155"
   inkscape:version="1.1 (c68e22c387, 2021-05-23)"
   sodipodi:docname="5.svg"
   xmlns:inkscape="http://www.inkscape.org/namespaces/inkscape"
   xmlns:sodipodi="http://sodipodi.sourceforge.net/DTD/sodipodi-0.dtd"
   xmlns="http://www.w3.org/2000/svg"
   xmlns:svg="http://www.w3.org/2000/svg">
  <sodipodi:namedview
     id="namedview3157"
     pagecolor="#505050"
     bordercolor="#ffffff"
     borderopacity="1"
     inkscape:pageshadow="0"
     inkscape:pageopacity="0"
     inkscape:pagecheckerboard="1"
     inkscape:document-units="mm"
     showgrid="false"
     inkscape:zoom="0.61647026"
     inkscape:cx="397.42388"
     inkscape:cy="562.07091"
     inkscape:window-width="1600"
     inkscape:window-height="837"
     inkscape:window-x="-8"
     inkscape:window-y="-8"
     inkscape:window-maximized="1"
     inkscape:current-layer="layer1" />
  <defs
     id="defs3152" />
  <g
     inkscape:label="Ebene 1"
     inkscape:groupmode="layer"
     id="layer1">
    <path
       style="fill:none;stroke:#000000;stroke-width:0.264583px;stroke-linecap:butt;stroke-linejoin:miter;stroke-opacity:1"
       d="m 155.79008,134.16584 c -2.54997,0 -5.09995,0 -7.64993,0 -0.37578,0 -0.7524,-0.025 -1.12735,0 -0.15277,0.0102 -0.0805,0.67445 -0.0805,1.20788 0,0.79875 -0.26378,1.6636 -0.48316,2.41577 -0.0473,0.16209 -0.65795,2.19384 -0.56368,2.33524 0.0595,0.0893 0.21712,0.0225 0.3221,0 0.70034,-0.15007 1.39334,-0.33308 2.09367,-0.48315 2.2384,-0.47966 4.91472,-0.94767 7.16678,-0.3221 0.47574,0.13215 1.44302,0.46063 1.61051,1.04683 0.2155,0.75425 -0.23152,1.30408 -0.72473,1.85209 -1.6001,1.77789 -4.02439,2.49026 -6.36152,2.57681 -0.48282,0.0179 -0.9683,0.0438 -1.44946,0 -0.98286,-0.0893 -0.17299,-0.0805 -0.64421,-0.0805"
       id="path1729" />
  </g>
</svg>
