<?xml version="1.0" encoding="UTF-8" standalone="no"?>
<!-- Created with Inkscape (http://www.inkscape.org/) -->

<svg
   width="210mm"
   height="297mm"
   viewBox="0 0 210 297"
   version="1.1"
   id="svg3155"
   inkscape:version="1.1 (c68e22c387, 2021-05-23)"
   sodipodi:docname="7.svg"
   xmlns:inkscape="http://www.inkscape.org/namespaces/inkscape"
   xmlns:sodipodi="http://sodipodi.sourceforge.net/DTD/sodipodi-0.dtd"
   xmlns="http://www.w3.org/2000/svg"
   xmlns:svg="http://www.w3.org/2000/svg">
  <sodipodi:namedview
     id="namedview3157"
     pagecolor="#505050"
     bordercolor="#ffffff"
     borderopacity="1"
     inkscape:pageshadow="0"
     inkscape:pageopacity="0"
     inkscape:pagecheckerboard="1"
     inkscape:document-units="mm"
     showgrid="false"
     inkscape:zoom="0.61647026"
     inkscape:cx="397.42388"
     inkscape:cy="562.07091"
     inkscape:window-width="1600"
     inkscape:window-height="837"
     inkscape:window-x="-8"
     inkscape:window-y="-8"
     inkscape:window-maximized="1"
     inkscape:current-layer="layer1" />
  <defs
     id="defs3152" />
  <g
     inkscape:label="Ebene 1"
     inkscape:groupmode="layer"
     id="layer1">
    <path
       style="fill:none;stroke:#000000;stroke-width:0.264583px;stroke-linecap:butt;stroke-linejoin:miter;stroke-opacity:1"
       d="m 144.86907,120.27046 c 1.34209,-0.13421 2.68838,-0.23161 4.02628,-0.40262 2.23287,-0.28541 4.45521,-0.64797 6.68362,-0.96631 0.21424,-0.0306 0.42913,-0.0566 0.64421,-0.0805 0.0267,-0.003 0.0805,-0.0268 0.0805,0 0,0.0409 -0.32091,0.32067 -0.3221,0.3221 -0.17184,0.20621 -0.33801,0.41842 -0.48316,0.64421 -1.33512,2.07685 0.65113,-0.79251 -1.36893,2.01314 -0.56175,0.7802 -1.01773,1.60469 -1.52999,2.41577 -0.95772,1.51638 -1.91358,3.0929 -2.57682,4.75101 -0.0537,0.10736 -0.10736,0.21473 -0.16105,0.3221 0,-0.0268 0.0268,-0.0805 0,-0.0805 -0.0268,0 0.008,0.0551 0,0.0805 -0.0457,0.13713 -0.0964,0.27334 -0.16105,0.40263 -0.0851,0.17012 -0.40263,0.36866 -0.40263,0.56368"
       id="path1963" />
  </g>
</svg>
