<?xml version="1.0" encoding="UTF-8" standalone="no"?>
<!-- Created with Inkscape (http://www.inkscape.org/) -->

<svg
   width="210mm"
   height="297mm"
   viewBox="0 0 210 297"
   version="1.1"
   id="svg3155"
   inkscape:version="1.1 (c68e22c387, 2021-05-23)"
   sodipodi:docname="8.svg"
   xmlns:inkscape="http://www.inkscape.org/namespaces/inkscape"
   xmlns:sodipodi="http://sodipodi.sourceforge.net/DTD/sodipodi-0.dtd"
   xmlns="http://www.w3.org/2000/svg"
   xmlns:svg="http://www.w3.org/2000/svg">
  <sodipodi:namedview
     id="namedview3157"
     pagecolor="#505050"
     bordercolor="#ffffff"
     borderopacity="1"
     inkscape:pageshadow="0"
     inkscape:pageopacity="0"
     inkscape:pagecheckerboard="1"
     inkscape:document-units="mm"
     showgrid="false"
     inkscape:zoom="0.61647026"
     inkscape:cx="397.42388"
     inkscape:cy="562.07091"
     inkscape:window-width="1600"
     inkscape:window-height="837"
     inkscape:window-x="-8"
     inkscape:window-y="-8"
     inkscape:window-maximized="1"
     inkscape:current-layer="layer1" />
  <defs
     id="defs3152" />
  <g
     inkscape:label="Ebene 1"
     inkscape:groupmode="layer"
     id="layer1">
    <path
       style="fill:none;stroke:#000000;stroke-width:0.264583px;stroke-linecap:butt;stroke-linejoin:miter;stroke-opacity:1"
       d="m 122.60757,110.81387 c -3.17663,-0.066 -7.16534,-0.0196 -8.61624,3.4626 -0.11119,0.26685 0.0922,0.63005 0.3221,0.80525 0.38491,0.29327 0.91516,0.31509 1.36894,0.48316 1.42997,0.52961 3.95143,1.38029 4.67048,2.81839 0.13469,0.26938 0.34196,0.58246 0.40263,0.88578 0.13756,0.68783 0.25303,1.92117 -0.3221,2.4963 -0.45515,0.45515 -1.0002,0.5552 -1.61051,0.72473 -0.71416,0.19837 -1.65844,0.32556 -2.33525,-0.0805 -0.56433,-0.3386 -0.91939,-0.8928 -1.04683,-1.52999 -0.49775,-2.48877 2.87246,-4.07124 4.58996,-5.07311 0.74988,-0.43742 2.09048,-0.97279 2.65734,-1.61051 0.50065,-0.56323 0.33008,-0.49911 0.64421,-1.12736 0.35288,-0.70576 0.79017,-1.43267 0.16105,-1.85209 -0.17674,-0.11782 -0.25406,-0.24157 -0.48315,-0.24157"
       id="path1965" />
  </g>
</svg>
