<?xml version="1.0" encoding="UTF-8" standalone="no"?>
<!-- Created with Inkscape (http://www.inkscape.org/) -->

<svg
   width="210mm"
   height="297mm"
   viewBox="0 0 210 297"
   version="1.1"
   id="svg3155"
   inkscape:version="1.1 (c68e22c387, 2021-05-23)"
   sodipodi:docname="9.svg"
   xmlns:inkscape="http://www.inkscape.org/namespaces/inkscape"
   xmlns:sodipodi="http://sodipodi.sourceforge.net/DTD/sodipodi-0.dtd"
   xmlns="http://www.w3.org/2000/svg"
   xmlns:svg="http://www.w3.org/2000/svg">
  <sodipodi:namedview
     id="namedview3157"
     pagecolor="#505050"
     bordercolor="#ffffff"
     borderopacity="1"
     inkscape:pageshadow="0"
     inkscape:pageopacity="0"
     inkscape:pagecheckerboard="1"
     inkscape:document-units="mm"
     showgrid="false"
     inkscape:zoom="0.61647026"
     inkscape:cx="397.42388"
     inkscape:cy="562.07091"
     inkscape:window-width="1600"
     inkscape:window-height="837"
     inkscape:window-x="-8"
     inkscape:window-y="-8"
     inkscape:window-maximized="1"
     inkscape:current-layer="layer1" />
  <defs
     id="defs3152" />
  <g
     inkscape:label="Ebene 1"
     inkscape:groupmode="layer"
     id="layer1">
    <path
       style="fill:none;stroke:#000000;stroke-width:0.264583px;stroke-linecap:butt;stroke-linejoin:miter;stroke-opacity:1"
       d="m 56.003587,92.513949 c -0.322101,0.85894 -0.522253,1.77411 -0.966306,2.57682 -0.266596,0.48192 -0.728972,0.8276 -1.127357,1.20788 -1.325719,1.26546 -3.154323,1.12539 -4.831535,0.88579 -0.323263,-0.0462 -0.655135,-0.062 -0.966309,-0.16106 -1.222737,-0.38905 -2.016781,-1.4722 -1.529985,-2.73787 0.423953,-1.10227 1.722551,-1.69384 2.657346,-2.25471 1.95472,-1.17284 3.255724,-2.17419 5.636789,-2.17419 0.612915,0 0.891106,-0.0409 1.207883,0.40263 0.380429,0.53259 0.402627,1.90837 0.402627,2.49629 0,0.96676 0.08053,1.92713 0.08053,2.89892 0,1.10052 0,2.20103 0,3.30155 0,1.758101 0.0623,3.561351 -1.288409,4.912061 -0.134208,0.13421 -0.244703,0.29734 -0.402627,0.40263 -1.108782,0.73918 -2.095879,0.72473 -3.382074,0.72473 -0.62656,0 -2.092402,0.0409 -2.657345,-0.24158"
       id="path2072" />
  </g>
</svg>
