<?xml version="1.0" encoding="UTF-8" standalone="no"?>
<!-- Created with Inkscape (http://www.inkscape.org/) -->

<svg
   width="210mm"
   height="297mm"
   viewBox="0 0 210 297"
   version="1.1"
   id="svg5"
   sodipodi:docname="AllNumbers.svg"
   inkscape:version="1.1 (c68e22c387, 2021-05-23)"
   xmlns:inkscape="http://www.inkscape.org/namespaces/inkscape"
   xmlns:sodipodi="http://sodipodi.sourceforge.net/DTD/sodipodi-0.dtd"
   xmlns="http://www.w3.org/2000/svg"
   xmlns:svg="http://www.w3.org/2000/svg">
  <sodipodi:namedview
     id="namedview7"
     pagecolor="#505050"
     bordercolor="#ffffff"
     borderopacity="1"
     inkscape:pageshadow="0"
     inkscape:pageopacity="0"
     inkscape:pagecheckerboard="1"
     inkscape:document-units="mm"
     showgrid="false"
     inkscape:zoom="1.3118885"
     inkscape:cx="228.67797"
     inkscape:cy="411.23921"
     inkscape:window-width="1600"
     inkscape:window-height="837"
     inkscape:window-x="-8"
     inkscape:window-y="-8"
     inkscape:window-maximized="1"
     inkscape:current-layer="layer1" />
  <defs
     id="defs2" />
  <g
     inkscape:label="Ebene 1"
     inkscape:groupmode="layer"
     id="layer1">
    <path
       style="fill:none;stroke:#000000;stroke-width:0.264583px;stroke-linecap:butt;stroke-linejoin:miter;stroke-opacity:1"
       d="m 50.972693,87.209203 c 1.682345,-2.191181 3.669157,-4.115954 5.475737,-6.200471 1.721959,-1.986875 -0.609134,0.697241 0.885783,-1.046832 0.03906,-0.04557 0.0205,-0.161051 0.08053,-0.161051 0.08943,0 0.214397,0.561657 0.241575,0.72473 0.182835,1.097002 0.08053,2.272843 0.08053,3.382074 0,1.620152 0.171254,3.2141 0.241578,4.831535 0.09183,2.112145 0,4.246853 0,6.361522 0,0.402627 -0.02678,0.806146 0,1.207884 0.04345,0.651798 0.189388,1.416629 0.08053,1.852089 -0.09253,0.370117 -0.08053,0.01828 -0.08053,0.241575"
       id="path1441" />
    <path
       style="fill:none;stroke:#000000;stroke-width:0.264583px;stroke-linecap:butt;stroke-linejoin:miter;stroke-opacity:1"
       d="m 68.044115,83.746604 c 2.8019,-2.909668 1.267404,-1.912578 5.314688,-3.4626 0.574995,-0.220213 1.254836,-0.278905 1.852088,-0.241578 0.436102,0.02726 0.871739,0.109996 1.28841,0.241578 0.217189,0.06858 0.340873,0.3053 0.483153,0.483153 1.272471,1.590588 0.855107,3.972168 -0.241578,5.556263 -0.837893,1.210294 -1.901457,2.165178 -2.979446,3.140499 -1.076251,0.973751 -0.05907,0.27881 -1.691037,1.529987 -0.413607,0.317098 -0.8748,0.568682 -1.28841,0.88578 -2.147382,1.646328 -0.07748,0.334806 -2.335241,1.771563 -0.54787,0.348646 -1.165307,0.658437 -1.771563,0.885782 -0.103624,0.03886 -0.21358,0.05882 -0.322101,0.08053 -0.02633,0.0053 -0.08053,-0.02684 -0.08053,0 0,0.08052 0.163454,-0.01953 0.241578,0 0.05823,0.01455 0.101081,0.07803 0.161049,0.08052 0.858195,0.03576 1.717879,0 2.576819,0 1.348518,0 2.680431,0.196715 4.026279,0.241577 1.792814,0.05976 3.531229,-0.241577 5.314688,-0.241577"
       id="path1513" />
    <path
       style="fill:none;stroke:#000000;stroke-width:0.264583px;stroke-linecap:butt;stroke-linejoin:miter;stroke-opacity:1"
       d="m 86.162371,81.411362 c 2.607818,-0.680162 7.268805,-2.186199 8.777287,1.207884 0.537827,1.210109 -0.441282,2.042832 -1.127357,2.818394 -1.386991,1.567903 -4.859462,2.517291 -6.844676,2.737869 -0.230246,0.02558 -1.570651,0.281437 -1.852088,0 -0.03796,-0.03796 0.108971,0.01302 0.161051,0 0.05823,-0.01455 0.107368,-0.05368 0.161052,-0.08053 0.214736,0 0.4298,0.01191 0.644205,0 0.269341,-0.01497 0.536837,-0.05368 0.805254,-0.08052 0.563682,0 1.127519,0.01341 1.69104,0 1.576014,-0.03753 3.177685,-0.313611 4.751009,-0.08053 1.463124,0.21676 2.263907,0.422108 2.49629,1.932612 0.06829,0.443862 0.128731,0.74994 0.08053,1.207883 -0.04262,0.404908 -0.117223,1.012182 -0.402627,1.368936 -0.739476,0.924346 -2.279242,2.039562 -3.462599,2.254716 -0.638747,0.116136 -1.288735,0.158496 -1.932615,0.241577 -0.841843,0.108625 -1.511715,0.08418 -2.335241,-0.08053 -0.141031,-0.02821 -0.402627,-0.01537 -0.402627,-0.161051"
       id="path1515" />
    <path
       style="fill:none;stroke:#000000;stroke-width:0.264583px;stroke-linecap:butt;stroke-linejoin:miter;stroke-opacity:1"
       d="m 106.37429,81.813989 c -0.45631,0.778415 -0.91429,1.555853 -1.36893,2.335242 -1.50535,2.580597 -1.04853,1.820944 -2.09367,3.30155 -0.41293,0.584983 -0.70732,1.190474 -1.20788,1.691036 -0.27863,0.278628 -0.55733,0.505762 -0.88578,0.724729 -0.0401,0.02676 -0.40263,0.185047 -0.40263,0.241577 0,0.02617 0.31823,-0.106849 0.72473,-0.161051 0.26739,-0.03565 0.53684,-0.05368 0.80525,-0.08053 0.69789,-0.08052 1.39783,-0.144931 2.09367,-0.241576 0.27113,-0.03766 0.53302,-0.132394 0.80525,-0.161051 0.24025,-0.02529 0.48353,0.01341 0.72473,0 0.70144,-0.03897 1.39515,-0.166736 2.09367,-0.241576 0.9108,-0.09759 1.82736,-0.145735 2.73787,-0.241577 0.9817,-0.103336 1.93042,-0.396695 2.89892,-0.563679 0.29217,-0.05037 0.59228,-0.0386 0.88578,-0.08053 0.74193,-0.10599 -0.24551,-0.08053 0.48316,-0.08053 0.12993,0 -0.0989,-0.101238 -0.40263,0 -0.534,0.177998 -1.32736,0.378206 -1.85209,0.483153 -1.08746,0.217493 -2.31037,-0.02635 -3.38208,0.241578 -0.11095,0.02774 -0.48489,-0.07879 -0.56368,0 -0.0654,0.06545 0.34135,0.86297 0.40263,1.046831 0.22173,0.665184 -0.0551,-0.250287 0.0805,0.563679 0.11738,0.704284 0.32303,1.377262 0.40263,2.093667 0.0363,0.327176 0.0826,1.048903 0.3221,1.288409 0.038,0.03796 0.013,-0.108971 0,-0.161051 -0.0752,-0.301017 -0.25671,-0.591498 -0.3221,-0.885783 -0.24169,-1.087604 -0.35307,-2.234028 -0.64421,-3.301548 -0.28331,-1.038828 -0.0733,-2.087932 -0.16105,-3.140498 -0.0759,-0.910677 -0.3221,-1.823003 -0.3221,-2.737868"
       id="path1727" />
    <path
       style="fill:none;stroke:#000000;stroke-width:0.264583px;stroke-linecap:butt;stroke-linejoin:miter;stroke-opacity:1"
       d="m 64.500989,102.58959 c -2.549977,0 -5.099952,0 -7.649929,0 -0.375788,0 -0.752406,-0.025 -1.127358,0 -0.15277,0.0102 -0.08053,0.67445 -0.08053,1.20788 0,0.79875 -0.263771,1.6636 -0.483153,2.41577 -0.04728,0.16209 -0.65795,2.19384 -0.563679,2.33524 0.05955,0.0893 0.217117,0.0225 0.322101,0 0.700331,-0.15007 1.393333,-0.33308 2.093667,-0.48315 2.238398,-0.47966 4.914722,-0.94767 7.166776,-0.3221 0.475742,0.13215 1.443025,0.46063 1.610511,1.04683 0.215501,0.75425 -0.231521,1.30408 -0.724731,1.85209 -1.600102,1.77789 -4.024392,2.49026 -6.36152,2.57681 -0.482822,0.0179 -0.968293,0.0438 -1.449461,0 -0.982861,-0.0893 -0.172987,-0.0805 -0.644205,-0.0805"
       id="path1729" />
    <path
       style="fill:none;stroke:#000000;stroke-width:0.264583px;stroke-linecap:butt;stroke-linejoin:miter;stroke-opacity:1"
       d="m 75.291417,108.62901 c 0.429469,-0.56368 0.742736,-1.23891 1.28841,-1.69104 1.199724,-0.99406 3.679616,-1.00172 4.992584,-0.24158 0.6598,0.38199 0.917057,1.2431 0.966309,1.93262 0.05244,0.7342 0.138845,1.42792 -0.241578,2.09366 -0.719265,1.25871 -3.884541,2.12223 -5.153636,1.52999 -0.80527,-0.37579 -3.050228,-2.02874 -2.818395,-3.22103 0.595456,-3.06235 2.806034,-4.89807 5.395212,-6.36152 0.725921,-0.4103 1.705903,-0.9663 2.576819,-0.9663"
       id="path1961" />
    <path
       style="fill:none;stroke:#000000;stroke-width:0.264583px;stroke-linecap:butt;stroke-linejoin:miter;stroke-opacity:1"
       d="m 88.175509,102.50906 c 1.342094,-0.13421 2.688378,-0.23161 4.026281,-0.40262 2.232871,-0.28541 4.455207,-0.64797 6.683621,-0.96631 0.214233,-0.0306 0.429122,-0.0566 0.644205,-0.0805 0.02668,-0.003 0.08053,-0.0268 0.08053,0 0,0.0409 -0.320906,0.32067 -0.322102,0.3221 -0.171838,0.20621 -0.338005,0.41842 -0.483152,0.64421 -1.33512,2.07685 0.651131,-0.79251 -1.368936,2.01314 -0.561748,0.7802 -1.017728,1.60469 -1.529988,2.41577 -0.957717,1.51638 -1.913575,3.0929 -2.576816,4.75101 -0.05368,0.10736 -0.107368,0.21473 -0.161052,0.3221 0,-0.0268 0.02684,-0.0805 0,-0.0805 -0.02684,0 0.0085,0.0551 0,0.0805 -0.04571,0.13713 -0.09641,0.27334 -0.161052,0.40263 -0.08506,0.17012 -0.402627,0.36866 -0.402627,0.56368"
       id="path1963" />
    <path
       style="fill:none;stroke:#000000;stroke-width:0.264583px;stroke-linecap:butt;stroke-linejoin:miter;stroke-opacity:1"
       d="m 114.2658,100.25435 c -3.17663,-0.066 -7.16534,-0.0196 -8.61624,3.4626 -0.11119,0.26685 0.0922,0.63005 0.3221,0.80525 0.38491,0.29327 0.91516,0.31509 1.36894,0.48316 1.42997,0.52961 3.95143,1.38029 4.67048,2.81839 0.13469,0.26938 0.34196,0.58246 0.40263,0.88578 0.13756,0.68783 0.25303,1.92117 -0.3221,2.4963 -0.45515,0.45515 -1.0002,0.5552 -1.61051,0.72473 -0.71416,0.19837 -1.65844,0.32556 -2.33525,-0.0805 -0.56433,-0.3386 -0.91939,-0.8928 -1.04683,-1.52999 -0.49775,-2.48877 2.87246,-4.07124 4.58996,-5.07311 0.74988,-0.43742 2.09048,-0.97279 2.65734,-1.61051 0.50065,-0.56323 0.33008,-0.49911 0.64421,-1.12736 0.35288,-0.70576 0.79017,-1.43267 0.16105,-1.85209 -0.17674,-0.11782 -0.25406,-0.24157 -0.48315,-0.24157"
       id="path1965" />
    <path
       style="fill:none;stroke:#000000;stroke-width:0.264583px;stroke-linecap:butt;stroke-linejoin:miter;stroke-opacity:1"
       d="m 69.735151,127.31094 c -0.322101,0.85894 -0.522253,1.77411 -0.966306,2.57682 -0.266596,0.48192 -0.728972,0.8276 -1.127357,1.20788 -1.325719,1.26546 -3.154323,1.12539 -4.831535,0.88579 -0.323263,-0.0462 -0.655135,-0.062 -0.966309,-0.16106 -1.222737,-0.38905 -2.016781,-1.4722 -1.529985,-2.73787 0.423953,-1.10227 1.722551,-1.69384 2.657346,-2.25471 1.95472,-1.17284 3.255724,-2.17419 5.636789,-2.17419 0.612915,0 0.891106,-0.0409 1.207883,0.40263 0.380429,0.53259 0.402627,1.90837 0.402627,2.49629 0,0.96676 0.08053,1.92713 0.08053,2.89892 0,1.10052 0,2.20103 0,3.30155 0,1.7581 0.0623,3.56135 -1.288409,4.91206 -0.134208,0.13421 -0.244703,0.29734 -0.402627,0.40263 -1.108782,0.73918 -2.095879,0.72473 -3.382074,0.72473 -0.62656,0 -2.092402,0.0409 -2.657345,-0.24158"
       id="path2072" />
    <path
       style="fill:none;stroke:#000000;stroke-width:0.264583px;stroke-linecap:butt;stroke-linejoin:miter;stroke-opacity:1"
       d="m 82.377668,123.28466 c -1.306441,0.54067 -2.941844,1.05432 -3.865229,2.25472 -1.310854,1.70411 -1.690047,4.63442 -1.207881,6.68362 0.161575,0.68671 0.701574,1.45952 1.127358,1.93261 0.422822,0.46981 1.532895,1.15445 2.174189,1.20789 1.150935,0.0959 2.298806,-0.0271 3.301548,-0.64421 1.392205,-0.85674 2.425742,-2.1661 2.979446,-3.70417 0.331338,-0.92038 0.107334,-1.84326 -0.161049,-2.73787 -0.165767,-0.55255 -0.235836,-1.13506 -0.40263,-1.69104 -0.08825,-0.29416 -0.272957,-0.54591 -0.402627,-0.80526 -0.129286,-0.25857 -0.17867,-0.55424 -0.322101,-0.80525 -0.279072,-0.48838 -1.183172,-1.40737 -1.691039,-1.61051 -0.317368,-0.12695 -0.712092,-0.0805 -1.046832,-0.0805"
       id="path2144" />
    <path
       id="path2343"
       style="fill:none;stroke:#000000;stroke-width:0.264583px;stroke-linecap:butt;stroke-linejoin:miter;stroke-opacity:1"
       d="m 114.74895,128.31751 c 0.17375,1.13445 0.24682,0.98387 0,0 z m 2.69054,-0.824 c -0.90039,0.0252 -1.93669,1.91337 -0.40757,1.31639 0.46711,-0.68656 2.13679,-1.55478 1.57267,0.0316 0.19841,1.22663 -1.94532,3.39141 -2.33241,1.38984 0.26298,-1.83224 2.17308,-2.79174 3.465,-3.88769 2.16512,-1.52867 4.56569,-2.67836 6.97197,-3.77015 m -11.9602,5.74405 c -0.0671,-0.55026 -0.13421,-1.10051 -0.20131,-1.65077 m -1.77156,1.69103 c 1.2483,0.49828 1.00038,1.67804 -0.16109,1.48973 m -0.56365,-2.65735 c 0.1998,0.88225 0.59701,1.73539 0.56368,2.65735 m -1.93261,-1.81183 c 0.1772,0.79923 0.32853,1.62767 0.76499,2.33524 m -2.97945,-0.44289 c 1.3623,0.47994 1.38978,-2.14397 -0.0178,-1.01024 -1.22623,0.78945 0.85047,1.56159 1.46731,1.13106 m -5.07312,0.64418 c 0.72896,-0.27512 1.5149,0.0803 2.25472,-0.1208 m -0.40263,-1.89234 c 0.10304,1.23455 -0.008,2.4964 0.32211,3.70417 m -2.4963,-2.97944 c 0.27206,0.87205 0.20675,1.83544 0.64421,2.65734 m -6.361522,-9.42149 c 0.98723,3.35915 1.012517,6.94341 0.426239,10.37724 1.648663,-0.71463 2.517843,-2.41293 3.691793,-3.68029 1.2892,-1.76344 2.63713,-3.53923 4.50819,-4.72761 1.32787,-0.93736 2.84914,-1.71513 4.49945,-1.80829 -0.95358,1.66675 -3.00076,2.15678 -4.45822,3.26735 -5.7746,3.38622 -11.576514,6.76639 -17.014047,10.67717 -0.763984,0.36445 -1.176336,1.63143 0.09803,0.93843 3.377775,-1.36774 6.635978,-3.03471 10.126864,-4.11405 4.47291,-1.61365 9.0601,-2.9177 13.74942,-3.72502 3.25121,-0.62289 6.46436,-1.42945 9.68345,-2.1875 0.73946,-0.11678 1.4909,-0.1385 2.22857,-0.2664" />
  </g>
</svg>
