<?xml version="1.0" encoding="UTF-8" standalone="no"?>
<!-- Created with Inkscape (http://www.inkscape.org/) -->

<svg
   width="210mm"
   height="297mm"
   viewBox="0 0 210 297"
   version="1.1"
   id="svg5"
   xmlns="http://www.w3.org/2000/svg"
   xmlns:svg="http://www.w3.org/2000/svg">
  <defs
     id="defs2" />
  <g
     id="layer1">
    <path
       style="fill:none;stroke:#000000;stroke-width:0.264583px;stroke-linecap:butt;stroke-linejoin:miter;stroke-opacity:1"
       d="m 91.840398,88.137155 c -4.881732,-0.311923 -9.886023,0.915115 -13.974772,3.626383 -3.868115,0.590504 -7.116038,5.116998 -5.307986,8.877972 2.516129,2.89007 2.44486,7.8809 6.430543,9.44769 6.119863,3.18483 12.667472,5.46 19.274516,7.36069 4.893821,2.29384 9.004531,6.27132 14.408621,7.42673 3.52763,2.12672 3.31235,6.86657 2.60973,10.39599 -1.40955,6.63259 -5.466,12.27065 -9.16895,17.79483 -4.12784,4.3494 -10.608317,5.04069 -16.275097,4.81085 -3.834729,-1.24979 -3.561275,-6.04896 -3.411234,-9.31853 0.406188,-4.16851 2.987812,-7.80014 3.149576,-12.02248 0.912846,-5.35192 3.853925,-10.12641 7.369699,-14.17011 2.731857,-1.90888 7.662226,-3.03219 7.188016,-7.27633 0.1844,-5.07462 0.92578,-10.64469 -2.14813,-15.08823 -1.90213,-3.346229 -6.776422,-3.53755 -7.956134,-7.458087 -0.479591,-1.29245 -0.463288,-2.751986 0.03359,-4.037044"
       id="path4650" />
  </g>
</svg>
