<?xml version="1.0" encoding="iso-8859-1"?>
<!-- Uploaded to: SVG Repo, www.svgrepo.com, Generator: SVG Repo Mixer Tools -->
<svg height="800px" width="800px" version="1.1" id="Capa_1" xmlns="http://www.w3.org/2000/svg" xmlns:xlink="http://www.w3.org/1999/xlink" 
	 viewBox="0 0 17.469 17.469" xml:space="preserve">
<g>
	<g>
		<path style="fill:#030104;" d="M10.911,8.339V8.288c1.101-0.551,1.616-1.497,1.616-2.46c0-1.359-1.084-2.873-3.698-2.873
			c-2.237,0-3.94,1.255-3.94,3.148c0,0.981,0.534,1.893,1.618,2.443v0.052c-1.222,0.533-1.996,1.461-1.996,2.803
			c0,1.514,1.307,3.115,4.146,3.115c2.597,0,4.301-1.359,4.301-3.391C12.958,9.682,11.995,8.753,10.911,8.339z M8.709,4.727
			c0.963,0,1.359,0.688,1.359,1.376c0,0.706-0.534,1.256-1.137,1.428C8.037,7.256,7.348,6.774,7.348,6.017
			C7.349,5.311,7.815,4.727,8.709,4.727z M8.76,12.71c-0.981,0-1.6-0.758-1.582-1.566c0-0.809,0.499-1.428,1.359-1.668
			c1.032,0.275,1.754,0.859,1.754,1.842C10.291,12.106,9.69,12.71,8.76,12.71z"/>
	</g>
</g>
</svg>